PathFileType	4	(X/Y/Z)	C:\Users\Basilio\Documents\Thesis Gigler\squatting_fais\c3dfiles\075\SLS_back_pre3\markers_experimental.trc
DataRate	CameraRate	NumFrames	NumMarkers	Units	OrigDataRate	OrigDataStartFrame	OrigNumFrames
200.000000	200.000000	4	61	mm	200.000000	334	1336
Frame#	Time	FHD			LBHD			C7			T10			CLAV			LSHO			LUUPA			LMUPA			LDUPA			LLEP			LMEP			LRAD			LUL			LRFIN			RSHO			RUPA1			RMUPA			RDUPA			RLEP			RMEP			RRAD			RUL			RUFIN			LASI			RASI			USACR			LSACR			RSACR			LTHI1			LTHI2			LTHI3			LTHI4			LLFC			LMFC			LTIB1			LTIB2			LTIB3			LTIB4			LLMAL			LMMAL			LHEE			LMT1			LMT2			LMT5			RTHI			RTHI2			RTHI3			RTHI4			RLFC			RMFC			RTIB1			RTIB2			RTIB3			RTIB4			RLMAL			RMMAL			RHEE			RMT1			RMT2			RMT5			RBHD			
		X1	Y1	Z1	X2	Y2	Z2	X3	Y3	Z3	X4	Y4	Z4	X5	Y5	Z5	X6	Y6	Z6	X7	Y7	Z7	X8	Y8	Z8	X9	Y9	Z9	X10	Y10	Z10	X11	Y11	Z11	X12	Y12	Z12	X13	Y13	Z13	X14	Y14	Z14	X15	Y15	Z15	X16	Y16	Z16	X17	Y17	Z17	X18	Y18	Z18	X19	Y19	Z19	X20	Y20	Z20	X21	Y21	Z21	X22	Y22	Z22	X23	Y23	Z23	X24	Y24	Z24	X25	Y25	Z25	X26	Y26	Z26	X27	Y27	Z27	X28	Y28	Z28	X29	Y29	Z29	X30	Y30	Z30	X31	Y31	Z31	X32	Y32	Z32	X33	Y33	Z33	X34	Y34	Z34	X35	Y35	Z35	X36	Y36	Z36	X37	Y37	Z37	X38	Y38	Z38	X39	Y39	Z39	X40	Y40	Z40	X41	Y41	Z41	X42	Y42	Z42	X43	Y43	Z43	X44	Y44	Z44	X45	Y45	Z45	X46	Y46	Z46	X47	Y47	Z47	X48	Y48	Z48	X49	Y49	Z49	X50	Y50	Z50	X51	Y51	Z51	X52	Y52	Z52	X53	Y53	Z53	X54	Y54	Z54	X55	Y55	Z55	X56	Y56	Z56	X57	Y57	Z57	X58	Y58	Z58	X59	Y59	Z59	X60	Y60	Z60	X61	Y61	Z61	

335	1.67	-245.5068817138672	1711.287963867188	-769.2869262695315	-382.8516540527344	1584.830444335938	-839.1863403320315	-413.4010620117189	1472.085205078125	-780.9926757812502	-439.6264038085939	1152.8779296875	-787.7103271484377	-267.3830566406251	1414.901733398438	-775.9067993164065	-297.8829650878907	1457.608520507813	-919.9827270507815	-168.9607849121094	1344.216796875	-1031.499145507813	-133.0926055908203	1362.477294921875	-1003.515686035156	-103.8203506469727	1323.986938476563	-1039.1533203125	-19.10447311401368	1301.369262695313	-1033.793823242188	-49.88269424438478	1230.65771484375	-982.9842529296877	nan	nan	nan	183.2236328125	1316.491088867188	-874.1768188476565	175.9837646484375	1351.249877929688	-772.1856079101565	-310.1984558105469	1441.758544921875	-628.5673217773439	-195.1210632324219	1312.525756835938	-512.6055297851564	-153.2786712646485	1329.172485351563	-531.9942016601564	-132.1477966308594	1283.302001953125	-498.4471740722657	-63.40800857543947	1262.325317382813	-494.7510070800782	-67.19676971435548	1195.030151367188	-540.9298095703126	113.3690872192383	1331.131958007813	-699.4636230468751	150.1552734375	1310.400634765625	-634.5791625976564	187.2669219970703	1366.642578125	-730.8422241210939	-303.2443847656251	975.0440063476565	-933.1836547851565	-287.9058227539063	968.4317016601565	-681.2996826171876	-445.5307617187501	1056.330200195313	-797.5494384765627	-456.7716369628907	1028.113525390625	-826.5372314453127	-453.1187438964845	1025.380004882813	-768.9803466796877	-319.4841003417969	741.5272827148439	-1010.887084960938	-274.7985839843751	668.4898681640626	-1013.949462890625	-233.0882110595704	678.6018676757814	-989.7926025390627	-294.7737121582032	611.1801757812501	-1012.161254882813	-302.4512634277344	520.2250976562501	-998.9316406250002	-275.7132263183594	490.801239013672	-872.3712158203127	-359.0288696289063	408.413299560547	-959.1962890625002	-427.6815795898439	444.0946350097657	-1000.114013671875	-412.4481506347657	405.851531982422	-983.8920898437502	-481.5184936523439	372.0481872558594	-946.5322265625002	-644.9268798828126	379.3710632324219	-946.143737792969	-604.4511108398439	358.0342712402344	-869.6431274414065	-681.1328125000001	421.686004638672	-896.5404052734377	-635.8397827148439	218.9525146484376	-866.072692871094	-649.4572753906251	210.571762084961	-912.1564941406252	-691.4996948242189	241.1314849853516	-954.5893554687502	-336.9903259277344	767.8292236328126	-624.4028930664064	-289.3207397460938	722.4811401367189	-629.8183593750001	-259.5320434570313	733.5667114257814	-641.5331420898439	-303.5203857421876	638.6935424804689	-645.1755981445314	-297.1840515136719	488.0308837890626	-685.5904541015626	-268.3854370117188	494.6117248535157	-810.0194091796877	-265.2513122558594	346.8037719726563	-769.276062011719	-321.4932556152344	269.9839782714844	-717.4811401367189	-287.5410156250001	264.1688537597657	-752.4320678710939	-307.7667236328126	226.7451171875001	-792.3208007812502	-391.6031799316407	115.2215728759766	-764.3660888671876	-363.4192504882813	143.3105010986328	-844.047058105469	-449.0806884765626	99.84320831298831	-823.013366699219	-246.5675048828126	55.9938316345215	-836.572204589844	-246.1711120605469	54.7899856567383	-794.3466796875002	-283.8530883789063	34.73823165893555	-741.8790283203126	nan	nan	nan	
336	1.675	-244.7188568115235	1710.572387695313	-769.0239868164065	-382.2516479492188	1584.006469726563	-838.9246215820315	-412.8545532226564	1471.330932617188	-780.821716308594	-439.7362670898439	1152.44287109375	-787.7774658203127	-266.9242553710938	1414.148803710938	-775.8623657226565	-297.4500122070313	1457.046020507813	-919.8253173828127	-168.5271148681641	1344.057006835938	-1031.442138671875	-132.691650390625	1362.21826171875	-1003.479064941406	-103.0881118774414	1323.742065429688	-1039.0185546875	-18.7364673614502	1301.203735351563	-1033.79541015625	-49.39934158325197	1230.453002929688	-983.2515869140627	nan	nan	nan	183.6755981445313	1316.21044921875	-874.3339843750002	176.3056182861328	1350.75	-772.308288574219	-309.6069335937501	1441.0283203125	-628.4715576171876	-194.3031005859376	1312.245239257813	-512.4262695312501	-152.5872955322266	1328.8134765625	-531.9827270507814	-131.4222412109375	1282.97314453125	-498.5123596191407	-62.73915863037111	1262.160400390625	-494.798797607422	-66.43010711669923	1194.804443359375	-540.7125854492189	114.0300598144532	1330.625854492188	-699.6046752929689	150.9288940429688	1310.1171875	-634.6453247070314	187.9102020263672	1366.171508789063	-731.0419921875001	-303.4547119140626	973.8604736328127	-932.735778808594	-288.2544555664063	967.7860107421877	-681.2595214843751	-445.8263244628907	1055.931762695313	-797.714050292969	-457.2458801269532	1027.580200195313	-826.565612792969	-453.5852355957032	1024.972534179688	-769.052917480469	-319.7515258789063	740.9279174804689	-1010.905029296875	-274.8290710449219	668.2239379882814	-1013.98291015625	-233.1783294677735	678.2816162109376	-989.7742919921877	-294.6824035644532	610.7127685546876	-1012.034484863281	-301.9371948242188	519.8413085937501	-998.8076171875002	-275.4692382812501	490.5840759277345	-872.0994873046877	-358.9132080078126	408.2011718750001	-958.8457641601565	-427.1627502441407	443.8508605957032	-999.6162109375002	-412.3823852539064	405.7141418457032	-983.4112548828127	-481.4289855957032	372.2262268066407	-945.7288818359377	-644.2493286132814	379.7114257812501	-945.4119873046877	-604.4837036132814	358.9001464843751	-868.8430175781252	-680.9534912109376	422.6499633789064	-895.9887695312502	-636.1199951171876	219.7886047363282	-865.0822753906252	-649.9290161132814	211.3825378417969	-911.090759277344	-691.9352416992189	241.938705444336	-953.4963378906252	-337.2381896972657	767.3685302734376	-624.2960815429689	-289.3067626953126	722.1893920898439	-629.7321166992189	-259.6541442871094	733.3231201171876	-641.4478759765626	-303.1450500488282	638.3174438476564	-644.9386596679689	-296.4551696777344	487.7424316406251	-685.3575439453126	-267.5209655761719	494.4360961914064	-809.7296142578127	-264.7171020507813	346.5692138671876	-769.1818847656252	-321.0607910156251	269.8416748046876	-717.4085693359376	-287.7056884765626	264.1032104492188	-752.6259765625001	-307.4585876464844	226.5881652832032	-792.1746215820315	-391.188201904297	115.2526397705078	-764.8798828125001	-364.0619812011719	143.5044097900391	-844.0188598632815	-449.0545654296876	99.85125732421878	-823.007263183594	-246.5475616455079	55.94243621826173	-836.547058105469	-246.1563110351563	54.80875396728517	-794.3320312500002	-283.8447875976563	34.71888732910157	-741.9062500000001	nan	nan	nan	
337	1.68	-243.8804626464844	1709.817993164063	-768.736755371094	-381.4362487792969	1583.53271484375	-838.617614746094	-412.2619018554689	1470.779174804688	-780.622253417969	-439.7696533203126	1152.075561523438	-787.8347167968752	-266.8428649902344	1413.431762695313	-776.0333251953127	-297.0726623535157	1456.357666015625	-919.8193969726565	-168.1167449951172	1343.786743164063	-1031.402465820313	-132.2173309326172	1361.922485351563	-1003.353210449219	-102.5474319458008	1323.558227539063	-1038.98486328125	-18.05816268920899	1301.078125	-1033.857299804688	-48.88246154785158	1230.248901367188	-983.4503173828127	nan	nan	nan	184.1206359863282	1315.7412109375	-874.423767089844	177.0258941650391	1350.283569335938	-772.3149414062502	-309.0854797363282	1440.260498046875	-628.4063720703126	-193.5672149658204	1311.957641601563	-512.4490966796876	-152.0009002685547	1328.565063476563	-532.0862426757814	-130.7186889648438	1282.724975585938	-498.4090270996095	-62.0741310119629	1261.960083007813	-494.8649291992189	-65.71589660644533	1194.4287109375	-540.6085815429689	114.7456817626953	1330.114135742188	-699.6485595703126	151.5873107910157	1309.759887695313	-634.6826171875001	188.6324157714844	1365.693481445313	-731.2164306640626	-303.4342956542969	973.4973754882815	-933.0149536132815	-288.9331665039063	967.0657958984377	-681.3254394531251	-446.4905395507814	1055.702880859375	-797.7407836914065	-457.7368469238282	1026.9892578125	-826.7154541015627	-454.059051513672	1024.53857421875	-769.1407470703127	-320.1174926757813	740.4286499023439	-1010.98779296875	-275.6695556640626	668.0339355468751	-1014.181274414063	-233.2492675781251	677.9801635742189	-989.7167968750002	-294.5180664062501	610.2070922851564	-1012.04638671875	-301.6956481933594	519.3990478515626	-998.7065429687502	-275.2091369628907	490.3930969238282	-871.761413574219	-358.8071289062501	407.9962463378907	-958.420837402344	-426.8565673828126	443.710174560547	-999.224792480469	-412.1729125976564	405.3408508300782	-982.928894042969	-481.3624267578126	372.4466857910157	-944.9485473632815	-644.2385253906251	380.3517456054688	-944.7940673828127	-604.3722534179689	359.7854919433594	-868.1455688476565	-680.7857055664064	423.5712890625001	-895.446960449219	-636.6720581054689	220.7415313720704	-863.8523559570315	-650.3787231445314	212.1414184570313	-910.0137939453127	-692.2739868164064	242.5965423583985	-952.344909667969	-337.4942016601563	766.9462890625001	-624.1909790039064	-289.3733520507813	721.9375000000001	-629.6274414062501	-259.7977600097657	733.0371093750001	-641.2932739257814	-302.6820983886719	638.0561523437501	-644.7534179687501	-295.6739501953126	487.4246520996095	-685.1525878906251	-266.4001159667969	494.0843200683595	-809.3602294921877	-264.2319946289063	346.2984313964844	-769.2254028320315	-320.6802368164063	269.6506042480469	-717.2875366210939	-286.6744384765626	263.5875549316407	-752.1805419921876	-306.9891967773438	226.3818054199219	-792.0915527343752	-391.0891113281251	115.3131408691407	-764.8439941406251	-363.9152526855469	143.5557250976563	-844.0057373046877	-449.024383544922	99.89314270019534	-822.9826660156252	-246.5246582031251	55.92684936523439	-836.5944824218752	-246.1860351562501	54.75977325439455	-794.3298950195315	-283.8394470214844	34.6950912475586	-741.9070434570314	nan	nan	nan	
338	1.685	-243.2966003417969	1708.96240234375	-768.4826660156252	-380.6919860839844	1583.18603515625	-838.5043945312502	-411.7126770019532	1470.233276367188	-780.4201660156252	-439.9652099609376	1151.584594726563	-787.929870605469	-265.9369201660157	1412.506103515625	-775.6406860351565	-296.1443786621094	1455.629516601563	-919.2806396484377	-167.5406036376953	1343.466430664063	-1031.35546875	-131.7264556884766	1361.5849609375	-1003.234375	-102.0639114379883	1323.359130859375	-1038.996459960938	-17.34722328186036	1300.826904296875	-1033.805541992188	-48.27145385742189	1229.963500976563	-983.6929931640627	nan	nan	nan	184.9735260009766	1315.369140625	-874.5468750000002	177.6097412109375	1349.726196289063	-772.4327392578127	-308.7508850097657	1439.752685546875	-628.5075683593751	-192.9673767089844	1311.502807617188	-512.3441772460939	-151.392807006836	1328.080078125	-532.2122802734376	-130.0067138671875	1282.394409179688	-498.3537902832032	-61.29689788818361	1261.728759765625	-494.8136291503907	-64.89940643310548	1194.0986328125	-540.3882446289064	115.3160858154297	1329.700805664063	-699.9157104492189	152.2867279052735	1309.363647460938	-634.8052978515626	189.2717590332032	1365.169677734375	-731.4111328125001	-304.7491760253907	972.809265136719	-933.3513793945315	-289.4675903320313	966.5383911132815	-681.3687133789064	-446.9988098144532	1055.193969726563	-797.7554931640627	-458.2420349121095	1026.477905273438	-826.840759277344	-454.4705505371095	1024.009643554688	-769.187683105469	-320.3673095703126	739.8433227539064	-1010.975646972656	-275.0539550781251	667.4924316406251	-1013.984558105469	-233.0875244140626	677.7943115234376	-990.019470214844	-294.3592834472657	609.7937011718751	-1012.066650390625	-301.3400573730469	518.9218139648439	-998.655944824219	-274.8345031738282	490.1543884277345	-871.667175292969	-358.6451110839844	407.7611389160157	-958.0048828125002	-426.8039855957032	443.6295776367189	-998.8816528320315	-412.2967224121095	405.5129699707032	-982.5689697265627	-481.3187561035157	372.6797485351563	-944.3719482421877	-644.1599121093751	381.0594482421876	-944.1302490234377	-604.2906494140626	360.3622741699219	-867.7364501953127	-680.5990600585939	424.511444091797	-895.0345458984377	-637.2258911132814	221.7842559814454	-862.7542724609377	-650.8020019531251	212.8342437744141	-908.790466308594	-692.2810058593751	243.2211456298829	-951.2679443359377	-337.7608337402344	766.4116210937501	-624.1860961914064	-289.5002746582032	721.5797119140626	-629.4729003906251	-259.9127807617188	732.8519287109376	-641.1635131835939	-302.3977050781251	637.6865234375001	-644.4891967773439	-294.7263183593751	487.0928955078126	-684.9274291992189	-265.5729370117188	493.8989562988282	-809.1848754882815	-263.5643615722657	346.0289916992188	-769.0454711914065	-320.1906433105469	269.5005798339844	-717.0953369140626	-286.3364868164063	263.3599853515626	-752.1329956054689	-307.1965332031251	226.2965545654297	-792.4239501953127	-391.0197143554689	115.3173217773438	-764.7965698242189	-363.8156738281251	143.6375885009766	-843.9151611328127	-449.0174865722657	99.99956512451175	-822.940368652344	-246.6060180664063	55.90129470825197	-836.6250610351565	-246.2141265869141	54.75740432739259	-794.3296508789065	-283.8285522460938	34.72245788574219	-741.8827514648439	nan	nan	nan	
